<mxfile host="app.diagrams.net" modified="2022-08-04T11:20:24.028Z" agent="5.0 (Windows NT 10.0; Win64; x64) AppleWebKit/537.36 (KHTML, like Gecko) Chrome/103.0.0.0 Safari/537.36" etag="OV7GIWzMa4zC2PxIJ8bL" version="20.2.3" type="github">
  <diagram id="z5RNLzMIoXiXiv_1bvgH" name="Page-1">
    <mxGraphModel dx="1108" dy="450" grid="1" gridSize="10" guides="1" tooltips="1" connect="1" arrows="1" fold="1" page="1" pageScale="1" pageWidth="850" pageHeight="1100" math="0" shadow="0">
      <root>
        <mxCell id="0" />
        <mxCell id="1" parent="0" />
        <mxCell id="CLZcmX5BXM0KhyPf1A6e-2" value="" style="rounded=1;whiteSpace=wrap;html=1;" vertex="1" parent="1">
          <mxGeometry x="200" y="80" width="320" height="960" as="geometry" />
        </mxCell>
        <mxCell id="CLZcmX5BXM0KhyPf1A6e-4" value="Sign up" style="ellipse;whiteSpace=wrap;html=1;" vertex="1" parent="1">
          <mxGeometry x="220" y="100" width="120" height="60" as="geometry" />
        </mxCell>
        <mxCell id="CLZcmX5BXM0KhyPf1A6e-5" value="Login" style="ellipse;whiteSpace=wrap;html=1;" vertex="1" parent="1">
          <mxGeometry x="220" y="170" width="120" height="60" as="geometry" />
        </mxCell>
        <mxCell id="CLZcmX5BXM0KhyPf1A6e-6" value="Search for a book" style="ellipse;whiteSpace=wrap;html=1;" vertex="1" parent="1">
          <mxGeometry x="220" y="240" width="120" height="60" as="geometry" />
        </mxCell>
        <mxCell id="CLZcmX5BXM0KhyPf1A6e-7" value="Make reservation" style="ellipse;whiteSpace=wrap;html=1;" vertex="1" parent="1">
          <mxGeometry x="220" y="310" width="120" height="60" as="geometry" />
        </mxCell>
        <mxCell id="CLZcmX5BXM0KhyPf1A6e-9" value="Add books" style="ellipse;whiteSpace=wrap;html=1;" vertex="1" parent="1">
          <mxGeometry x="220" y="380" width="120" height="60" as="geometry" />
        </mxCell>
        <mxCell id="CLZcmX5BXM0KhyPf1A6e-10" value="Delete books" style="ellipse;whiteSpace=wrap;html=1;" vertex="1" parent="1">
          <mxGeometry x="220" y="450" width="120" height="60" as="geometry" />
        </mxCell>
        <mxCell id="CLZcmX5BXM0KhyPf1A6e-11" value="Edit books" style="ellipse;whiteSpace=wrap;html=1;" vertex="1" parent="1">
          <mxGeometry x="220" y="520" width="120" height="60" as="geometry" />
        </mxCell>
        <mxCell id="CLZcmX5BXM0KhyPf1A6e-12" value="Add member" style="ellipse;whiteSpace=wrap;html=1;" vertex="1" parent="1">
          <mxGeometry x="220" y="590" width="120" height="60" as="geometry" />
        </mxCell>
        <mxCell id="CLZcmX5BXM0KhyPf1A6e-14" value="Delete member" style="ellipse;whiteSpace=wrap;html=1;" vertex="1" parent="1">
          <mxGeometry x="220" y="660" width="120" height="60" as="geometry" />
        </mxCell>
        <mxCell id="CLZcmX5BXM0KhyPf1A6e-15" value="Edit member" style="ellipse;whiteSpace=wrap;html=1;" vertex="1" parent="1">
          <mxGeometry x="220" y="730" width="120" height="60" as="geometry" />
        </mxCell>
        <mxCell id="CLZcmX5BXM0KhyPf1A6e-21" style="edgeStyle=orthogonalEdgeStyle;rounded=0;orthogonalLoop=1;jettySize=auto;html=1;exitX=0;exitY=0.3333333333333333;exitDx=0;exitDy=0;exitPerimeter=0;entryX=1;entryY=0.5;entryDx=0;entryDy=0;" edge="1" parent="1" source="CLZcmX5BXM0KhyPf1A6e-16" target="CLZcmX5BXM0KhyPf1A6e-18">
          <mxGeometry relative="1" as="geometry" />
        </mxCell>
        <mxCell id="CLZcmX5BXM0KhyPf1A6e-25" style="edgeStyle=orthogonalEdgeStyle;rounded=0;orthogonalLoop=1;jettySize=auto;html=1;exitX=0.5;exitY=0.5;exitDx=0;exitDy=0;exitPerimeter=0;entryX=1;entryY=0.5;entryDx=0;entryDy=0;" edge="1" parent="1" source="CLZcmX5BXM0KhyPf1A6e-16" target="CLZcmX5BXM0KhyPf1A6e-19">
          <mxGeometry relative="1" as="geometry">
            <Array as="points">
              <mxPoint x="570" y="430" />
              <mxPoint x="570" y="690" />
            </Array>
          </mxGeometry>
        </mxCell>
        <mxCell id="CLZcmX5BXM0KhyPf1A6e-29" style="edgeStyle=orthogonalEdgeStyle;rounded=0;orthogonalLoop=1;jettySize=auto;html=1;exitX=0.5;exitY=0;exitDx=0;exitDy=0;exitPerimeter=0;entryX=1;entryY=0.5;entryDx=0;entryDy=0;" edge="1" parent="1" source="CLZcmX5BXM0KhyPf1A6e-16" target="CLZcmX5BXM0KhyPf1A6e-5">
          <mxGeometry relative="1" as="geometry" />
        </mxCell>
        <mxCell id="CLZcmX5BXM0KhyPf1A6e-30" style="edgeStyle=orthogonalEdgeStyle;rounded=0;orthogonalLoop=1;jettySize=auto;html=1;exitX=0.25;exitY=0.1;exitDx=0;exitDy=0;exitPerimeter=0;entryX=1;entryY=0.5;entryDx=0;entryDy=0;" edge="1" parent="1" source="CLZcmX5BXM0KhyPf1A6e-16" target="CLZcmX5BXM0KhyPf1A6e-6">
          <mxGeometry relative="1" as="geometry" />
        </mxCell>
        <mxCell id="CLZcmX5BXM0KhyPf1A6e-32" style="edgeStyle=orthogonalEdgeStyle;rounded=0;orthogonalLoop=1;jettySize=auto;html=1;exitX=0;exitY=1;exitDx=0;exitDy=0;exitPerimeter=0;entryX=1;entryY=0.5;entryDx=0;entryDy=0;" edge="1" parent="1" source="CLZcmX5BXM0KhyPf1A6e-16" target="CLZcmX5BXM0KhyPf1A6e-34">
          <mxGeometry relative="1" as="geometry" />
        </mxCell>
        <mxCell id="CLZcmX5BXM0KhyPf1A6e-22" style="edgeStyle=orthogonalEdgeStyle;rounded=0;orthogonalLoop=1;jettySize=auto;html=1;exitX=0;exitY=0;exitDx=0;exitDy=0;entryX=1;entryY=0.5;entryDx=0;entryDy=0;" edge="1" parent="1" source="CLZcmX5BXM0KhyPf1A6e-18" target="CLZcmX5BXM0KhyPf1A6e-9">
          <mxGeometry relative="1" as="geometry">
            <Array as="points">
              <mxPoint x="360" y="459" />
              <mxPoint x="360" y="410" />
            </Array>
          </mxGeometry>
        </mxCell>
        <mxCell id="CLZcmX5BXM0KhyPf1A6e-23" style="edgeStyle=orthogonalEdgeStyle;rounded=0;orthogonalLoop=1;jettySize=auto;html=1;exitX=0;exitY=0.5;exitDx=0;exitDy=0;entryX=1;entryY=0.5;entryDx=0;entryDy=0;" edge="1" parent="1" source="CLZcmX5BXM0KhyPf1A6e-18" target="CLZcmX5BXM0KhyPf1A6e-10">
          <mxGeometry relative="1" as="geometry" />
        </mxCell>
        <mxCell id="CLZcmX5BXM0KhyPf1A6e-24" style="edgeStyle=orthogonalEdgeStyle;rounded=0;orthogonalLoop=1;jettySize=auto;html=1;exitX=0;exitY=1;exitDx=0;exitDy=0;entryX=1;entryY=0.5;entryDx=0;entryDy=0;" edge="1" parent="1" source="CLZcmX5BXM0KhyPf1A6e-18" target="CLZcmX5BXM0KhyPf1A6e-11">
          <mxGeometry relative="1" as="geometry">
            <Array as="points">
              <mxPoint x="360" y="501" />
              <mxPoint x="360" y="550" />
            </Array>
          </mxGeometry>
        </mxCell>
        <mxCell id="CLZcmX5BXM0KhyPf1A6e-18" value="Control books" style="ellipse;whiteSpace=wrap;html=1;" vertex="1" parent="1">
          <mxGeometry x="365" y="450" width="120" height="60" as="geometry" />
        </mxCell>
        <mxCell id="CLZcmX5BXM0KhyPf1A6e-26" style="edgeStyle=orthogonalEdgeStyle;rounded=0;orthogonalLoop=1;jettySize=auto;html=1;exitX=0;exitY=0.5;exitDx=0;exitDy=0;entryX=1;entryY=0.5;entryDx=0;entryDy=0;" edge="1" parent="1" source="CLZcmX5BXM0KhyPf1A6e-19" target="CLZcmX5BXM0KhyPf1A6e-14">
          <mxGeometry relative="1" as="geometry" />
        </mxCell>
        <mxCell id="CLZcmX5BXM0KhyPf1A6e-27" style="edgeStyle=orthogonalEdgeStyle;rounded=0;orthogonalLoop=1;jettySize=auto;html=1;exitX=0;exitY=0;exitDx=0;exitDy=0;entryX=1;entryY=0.5;entryDx=0;entryDy=0;" edge="1" parent="1" source="CLZcmX5BXM0KhyPf1A6e-19" target="CLZcmX5BXM0KhyPf1A6e-12">
          <mxGeometry relative="1" as="geometry">
            <Array as="points">
              <mxPoint x="360" y="669" />
              <mxPoint x="360" y="620" />
            </Array>
          </mxGeometry>
        </mxCell>
        <mxCell id="CLZcmX5BXM0KhyPf1A6e-28" style="edgeStyle=orthogonalEdgeStyle;rounded=0;orthogonalLoop=1;jettySize=auto;html=1;exitX=0;exitY=1;exitDx=0;exitDy=0;entryX=1;entryY=0.5;entryDx=0;entryDy=0;" edge="1" parent="1" source="CLZcmX5BXM0KhyPf1A6e-19" target="CLZcmX5BXM0KhyPf1A6e-15">
          <mxGeometry relative="1" as="geometry">
            <Array as="points">
              <mxPoint x="360" y="711" />
              <mxPoint x="360" y="760" />
            </Array>
          </mxGeometry>
        </mxCell>
        <mxCell id="CLZcmX5BXM0KhyPf1A6e-19" value="Control members" style="ellipse;whiteSpace=wrap;html=1;" vertex="1" parent="1">
          <mxGeometry x="365" y="660" width="120" height="60" as="geometry" />
        </mxCell>
        <mxCell id="CLZcmX5BXM0KhyPf1A6e-31" value="Show issues" style="ellipse;whiteSpace=wrap;html=1;" vertex="1" parent="1">
          <mxGeometry x="220" y="800" width="120" height="60" as="geometry" />
        </mxCell>
        <mxCell id="CLZcmX5BXM0KhyPf1A6e-37" style="edgeStyle=orthogonalEdgeStyle;rounded=0;orthogonalLoop=1;jettySize=auto;html=1;exitX=0;exitY=0.5;exitDx=0;exitDy=0;entryX=1;entryY=0.5;entryDx=0;entryDy=0;" edge="1" parent="1" source="CLZcmX5BXM0KhyPf1A6e-34" target="CLZcmX5BXM0KhyPf1A6e-35">
          <mxGeometry relative="1" as="geometry" />
        </mxCell>
        <mxCell id="CLZcmX5BXM0KhyPf1A6e-38" style="edgeStyle=orthogonalEdgeStyle;rounded=0;orthogonalLoop=1;jettySize=auto;html=1;exitX=0;exitY=0;exitDx=0;exitDy=0;entryX=1;entryY=0.5;entryDx=0;entryDy=0;" edge="1" parent="1" source="CLZcmX5BXM0KhyPf1A6e-34" target="CLZcmX5BXM0KhyPf1A6e-31">
          <mxGeometry relative="1" as="geometry">
            <Array as="points">
              <mxPoint x="360" y="879" />
              <mxPoint x="360" y="830" />
            </Array>
          </mxGeometry>
        </mxCell>
        <mxCell id="CLZcmX5BXM0KhyPf1A6e-39" style="edgeStyle=orthogonalEdgeStyle;rounded=0;orthogonalLoop=1;jettySize=auto;html=1;exitX=0;exitY=1;exitDx=0;exitDy=0;entryX=1;entryY=0.5;entryDx=0;entryDy=0;" edge="1" parent="1" source="CLZcmX5BXM0KhyPf1A6e-34" target="CLZcmX5BXM0KhyPf1A6e-36">
          <mxGeometry relative="1" as="geometry">
            <Array as="points">
              <mxPoint x="360" y="921" />
              <mxPoint x="360" y="970" />
            </Array>
          </mxGeometry>
        </mxCell>
        <mxCell id="CLZcmX5BXM0KhyPf1A6e-34" value="Controll issues" style="ellipse;whiteSpace=wrap;html=1;" vertex="1" parent="1">
          <mxGeometry x="365" y="870" width="120" height="60" as="geometry" />
        </mxCell>
        <mxCell id="CLZcmX5BXM0KhyPf1A6e-35" value="Confirm issue" style="ellipse;whiteSpace=wrap;html=1;" vertex="1" parent="1">
          <mxGeometry x="220" y="870" width="120" height="60" as="geometry" />
        </mxCell>
        <mxCell id="CLZcmX5BXM0KhyPf1A6e-36" value="Delete issue" style="ellipse;whiteSpace=wrap;html=1;" vertex="1" parent="1">
          <mxGeometry x="220" y="940" width="120" height="60" as="geometry" />
        </mxCell>
        <mxCell id="CLZcmX5BXM0KhyPf1A6e-42" style="edgeStyle=orthogonalEdgeStyle;rounded=0;orthogonalLoop=1;jettySize=auto;html=1;exitX=0.5;exitY=0.5;exitDx=0;exitDy=0;exitPerimeter=0;entryX=0;entryY=0.5;entryDx=0;entryDy=0;" edge="1" parent="1" source="CLZcmX5BXM0KhyPf1A6e-1" target="CLZcmX5BXM0KhyPf1A6e-6">
          <mxGeometry relative="1" as="geometry" />
        </mxCell>
        <mxCell id="CLZcmX5BXM0KhyPf1A6e-43" style="edgeStyle=orthogonalEdgeStyle;rounded=0;orthogonalLoop=1;jettySize=auto;html=1;exitX=1;exitY=1;exitDx=0;exitDy=0;exitPerimeter=0;entryX=0;entryY=0.5;entryDx=0;entryDy=0;" edge="1" parent="1" source="CLZcmX5BXM0KhyPf1A6e-1" target="CLZcmX5BXM0KhyPf1A6e-7">
          <mxGeometry relative="1" as="geometry" />
        </mxCell>
        <mxCell id="CLZcmX5BXM0KhyPf1A6e-1" value="Member" style="shape=umlActor;verticalLabelPosition=bottom;verticalAlign=top;html=1;outlineConnect=0;" vertex="1" parent="1">
          <mxGeometry x="90" y="200" width="30" height="60" as="geometry" />
        </mxCell>
        <mxCell id="CLZcmX5BXM0KhyPf1A6e-41" style="edgeStyle=orthogonalEdgeStyle;rounded=0;orthogonalLoop=1;jettySize=auto;html=1;exitX=1;exitY=0.3333333333333333;exitDx=0;exitDy=0;exitPerimeter=0;entryX=0;entryY=0.5;entryDx=0;entryDy=0;" edge="1" parent="1" source="CLZcmX5BXM0KhyPf1A6e-1" target="CLZcmX5BXM0KhyPf1A6e-5">
          <mxGeometry relative="1" as="geometry">
            <mxPoint x="150" y="260" as="targetPoint" />
            <Array as="points">
              <mxPoint x="180" y="220" />
              <mxPoint x="180" y="200" />
            </Array>
          </mxGeometry>
        </mxCell>
        <mxCell id="CLZcmX5BXM0KhyPf1A6e-40" style="edgeStyle=orthogonalEdgeStyle;rounded=0;orthogonalLoop=1;jettySize=auto;html=1;exitX=0.75;exitY=0.1;exitDx=0;exitDy=0;exitPerimeter=0;entryX=0;entryY=0.5;entryDx=0;entryDy=0;" edge="1" parent="1" source="CLZcmX5BXM0KhyPf1A6e-1" target="CLZcmX5BXM0KhyPf1A6e-4">
          <mxGeometry relative="1" as="geometry">
            <Array as="points">
              <mxPoint x="160" y="206" />
              <mxPoint x="160" y="130" />
            </Array>
          </mxGeometry>
        </mxCell>
        <mxCell id="CLZcmX5BXM0KhyPf1A6e-45" value="" style="swimlane;startSize=0;" vertex="1" parent="1">
          <mxGeometry x="40" y="40" width="640" height="1040" as="geometry" />
        </mxCell>
        <mxCell id="CLZcmX5BXM0KhyPf1A6e-16" value="Admin" style="shape=umlActor;verticalLabelPosition=bottom;verticalAlign=top;html=1;outlineConnect=0;" vertex="1" parent="CLZcmX5BXM0KhyPf1A6e-45">
          <mxGeometry x="570" y="360" width="30" height="60" as="geometry" />
        </mxCell>
      </root>
    </mxGraphModel>
  </diagram>
</mxfile>
